<mxfile host="app.diagrams.net" agent="Mozilla/5.0 (X11; Linux x86_64; rv:140.0) Gecko/20100101 Firefox/140.0" version="28.0.7">
  <diagram name="Page-1" id="4YZ19eFIGqYHpETlewSG">
    <mxGraphModel dx="601" dy="333" grid="1" gridSize="10" guides="1" tooltips="1" connect="1" arrows="1" fold="1" page="1" pageScale="1" pageWidth="850" pageHeight="1100" math="0" shadow="0">
      <root>
        <mxCell id="0" />
        <mxCell id="1" parent="0" />
        <mxCell id="0xKc4E0T9cYyfPoQld-j-3" style="edgeStyle=orthogonalEdgeStyle;rounded=0;orthogonalLoop=1;jettySize=auto;html=1;" parent="1" source="0xKc4E0T9cYyfPoQld-j-1" target="0xKc4E0T9cYyfPoQld-j-2" edge="1">
          <mxGeometry relative="1" as="geometry" />
        </mxCell>
        <mxCell id="0xKc4E0T9cYyfPoQld-j-1" value="IMU Data" style="rounded=1;whiteSpace=wrap;html=1;" parent="1" vertex="1">
          <mxGeometry x="240" y="120" width="120" height="60" as="geometry" />
        </mxCell>
        <mxCell id="0xKc4E0T9cYyfPoQld-j-5" style="edgeStyle=orthogonalEdgeStyle;rounded=0;orthogonalLoop=1;jettySize=auto;html=1;" parent="1" source="0xKc4E0T9cYyfPoQld-j-2" target="0xKc4E0T9cYyfPoQld-j-4" edge="1">
          <mxGeometry relative="1" as="geometry" />
        </mxCell>
        <mxCell id="0xKc4E0T9cYyfPoQld-j-2" value="Flicker detection and elimination" style="rounded=1;whiteSpace=wrap;html=1;" parent="1" vertex="1">
          <mxGeometry x="390" y="120" width="120" height="60" as="geometry" />
        </mxCell>
        <mxCell id="0xKc4E0T9cYyfPoQld-j-9" style="edgeStyle=orthogonalEdgeStyle;rounded=0;orthogonalLoop=1;jettySize=auto;html=1;" parent="1" source="0xKc4E0T9cYyfPoQld-j-4" target="0xKc4E0T9cYyfPoQld-j-8" edge="1">
          <mxGeometry relative="1" as="geometry" />
        </mxCell>
        <mxCell id="0xKc4E0T9cYyfPoQld-j-4" value="Quaternion data" style="rounded=1;whiteSpace=wrap;html=1;" parent="1" vertex="1">
          <mxGeometry x="540" y="120" width="120" height="60" as="geometry" />
        </mxCell>
        <mxCell id="0xKc4E0T9cYyfPoQld-j-7" value="Output" style="rounded=1;whiteSpace=wrap;html=1;" parent="1" vertex="1">
          <mxGeometry x="680" y="120" width="120" height="60" as="geometry" />
        </mxCell>
        <mxCell id="0xKc4E0T9cYyfPoQld-j-8" value="Recalibration" style="rounded=1;whiteSpace=wrap;html=1;" parent="1" vertex="1">
          <mxGeometry x="540" y="190" width="120" height="60" as="geometry" />
        </mxCell>
        <mxCell id="0xKc4E0T9cYyfPoQld-j-10" style="edgeStyle=orthogonalEdgeStyle;rounded=0;orthogonalLoop=1;jettySize=auto;html=1;entryX=0.617;entryY=0.983;entryDx=0;entryDy=0;entryPerimeter=0;" parent="1" source="0xKc4E0T9cYyfPoQld-j-8" target="0xKc4E0T9cYyfPoQld-j-7" edge="1">
          <mxGeometry relative="1" as="geometry" />
        </mxCell>
        <mxCell id="0xKc4E0T9cYyfPoQld-j-18" style="edgeStyle=orthogonalEdgeStyle;rounded=0;orthogonalLoop=1;jettySize=auto;html=1;entryX=0;entryY=0.5;entryDx=0;entryDy=0;" parent="1" source="0xKc4E0T9cYyfPoQld-j-12" target="0xKc4E0T9cYyfPoQld-j-8" edge="1">
          <mxGeometry relative="1" as="geometry">
            <Array as="points">
              <mxPoint x="470" y="220" />
            </Array>
          </mxGeometry>
        </mxCell>
        <mxCell id="0xKc4E0T9cYyfPoQld-j-12" value="Saved inverted quaternion" style="ellipse;whiteSpace=wrap;html=1;" parent="1" vertex="1">
          <mxGeometry x="410" y="270" width="120" height="80" as="geometry" />
        </mxCell>
        <mxCell id="8YJYa94Vzlqq8qLIeSzj-1" style="edgeStyle=orthogonalEdgeStyle;rounded=0;orthogonalLoop=1;jettySize=auto;html=1;" edge="1" parent="1" source="0xKc4E0T9cYyfPoQld-j-14" target="0xKc4E0T9cYyfPoQld-j-8">
          <mxGeometry relative="1" as="geometry" />
        </mxCell>
        <mxCell id="0xKc4E0T9cYyfPoQld-j-14" value="Lost-in-space algorithm" style="ellipse;whiteSpace=wrap;html=1;" parent="1" vertex="1">
          <mxGeometry x="540" y="270" width="120" height="80" as="geometry" />
        </mxCell>
      </root>
    </mxGraphModel>
  </diagram>
</mxfile>
